<svg width="50" height="50" viewBox="0 0 50 50" fill="none" xmlns="http://www.w3.org/2000/svg">
<circle cx="25" cy="25" r="25" fill="#0183D5"/>
<path d="M17.2289 23.2522C19.3089 27.34 22.66 30.6767 26.7478 32.7711L29.9256 29.5933C30.3156 29.2033 30.8933 29.0733 31.3989 29.2467C33.0167 29.7811 34.7644 30.07 36.5556 30.07C37.35 30.07 38 30.72 38 31.5144V36.5556C38 37.35 37.35 38 36.5556 38C22.9922 38 12 27.0078 12 13.4444C12 12.65 12.65 12 13.4444 12H18.5C19.2944 12 19.9444 12.65 19.9444 13.4444C19.9444 15.25 20.2333 16.9833 20.7678 18.6011C20.9267 19.1067 20.8111 19.67 20.4067 20.0744L17.2289 23.2522Z" fill="white"/>
</svg>
