<svg width="23" height="18" viewBox="0 0 23 18" fill="none" xmlns="http://www.w3.org/2000/svg">
<path d="M2.3 18C1.6675 18 1.12623 17.7799 0.6762 17.3396C0.226167 16.8994 0.000766667 16.3695 0 15.75V2.25C0 1.63125 0.2254 1.10175 0.6762 0.6615C1.127 0.22125 1.66827 0.00075 2.3 0H20.7C21.3325 0 21.8741 0.2205 22.3249 0.6615C22.7757 1.1025 23.0008 1.632 23 2.25V15.75C23 16.3687 22.775 16.8986 22.3249 17.3396C21.8749 17.7806 21.3333 18.0007 20.7 18H2.3ZM11.5 10.125L2.3 4.5V15.75H20.7V4.5L11.5 10.125ZM11.5 7.875L20.7 2.25H2.3L11.5 7.875ZM2.3 4.5V2.25V15.75V4.5Z" fill="#99A1AF"/>
</svg>
