<svg width="44" height="42" viewBox="0 0 44 42" fill="none" xmlns="http://www.w3.org/2000/svg">
<path d="M22 0.6875C13.3844 0.6875 6.375 7.69688 6.375 16.3125C6.375 24.9281 13.3844 31.9375 22 31.9375C30.6156 31.9375 37.625 24.9281 37.625 16.3125C37.625 7.69688 30.6156 0.6875 22 0.6875ZM22 3.8125C28.8922 3.8125 34.5 9.42031 34.5 16.3125C34.5 23.2047 28.8922 28.8125 22 28.8125C15.1078 28.8125 9.5 23.2047 9.5 16.3125C9.5 9.42031 15.1078 3.8125 22 3.8125ZM20.4375 6.9375V8.79687C19.3112 9.20702 18.3784 10.0227 17.8219 11.0844C17.3378 12.0194 17.1921 13.0932 17.4094 14.1234C17.6016 15.0198 18.0474 15.8421 18.6938 16.4922C19.1203 16.9187 19.6281 17.2641 20.1875 17.5031C20.7469 17.7422 21.3594 17.875 22 17.875C22.224 17.876 22.4302 17.9156 22.6187 17.9937C22.8044 18.0692 22.9731 18.1811 23.1147 18.3228C23.2564 18.4644 23.3683 18.6331 23.4438 18.8188C23.5219 19.0073 23.5615 19.2135 23.5625 19.4375C23.5684 19.7451 23.4816 20.0474 23.3132 20.3049C23.1449 20.5624 22.9029 20.7633 22.6187 20.8813C22.4302 20.9594 22.224 20.999 22 21C21.776 20.999 21.5698 20.9594 21.3813 20.8813C21.1966 20.8041 21.0284 20.6922 20.8859 20.5516C20.7414 20.4046 20.6274 20.2305 20.5504 20.0393C20.4734 19.8481 20.4351 19.6436 20.4375 19.4375H17.3125C17.312 20.6534 17.7935 21.8198 18.6516 22.6812C19.1546 23.1914 19.7646 23.5837 20.4375 23.8297V25.6875H23.5625V23.8281C24.3507 23.5463 25.0497 23.0598 25.5879 22.4187C26.1261 21.7776 26.484 21.0048 26.625 20.1797C26.8186 19.008 26.551 17.8068 25.8781 16.8281C25.5379 16.3299 25.1076 15.8996 24.6094 15.5594C24.1039 15.2151 23.5359 14.973 22.9375 14.8469C22.629 14.7832 22.315 14.7507 22 14.75C21.776 14.749 21.5698 14.7094 21.3813 14.6312C21.1956 14.5558 21.0269 14.4439 20.8853 14.3022C20.7436 14.1606 20.6317 13.9919 20.5562 13.8062C20.4751 13.6102 20.4347 13.3997 20.4375 13.1875C20.4385 12.9635 20.4781 12.7573 20.5562 12.5688C20.6317 12.3831 20.7436 12.2144 20.8853 12.0728C21.0269 11.9311 21.1956 11.8192 21.3813 11.7438C21.5698 11.6656 21.776 11.626 22 11.625C22.8906 11.625 23.5625 12.2969 23.5625 13.1875H26.6875C26.6864 12.6971 26.6084 12.2099 26.4562 11.7438C26.2258 11.067 25.8461 10.4507 25.3452 9.94055C24.8443 9.43043 24.235 9.03955 23.5625 8.79687V6.9375H20.4375ZM0.125 28.8125V41.3125H3.25V31.9375H11.6562C10.3304 31.0528 9.12272 30.0027 8.0625 28.8125H0.125ZM35.9375 28.8125C34.8773 30.0027 33.6696 31.0528 32.3438 31.9375H40.75V41.3125H43.875V28.8125H35.9375ZM6.375 35.0625V38.1875H37.625V35.0625H6.375Z" fill="white"/>
</svg>
