<svg width="50" height="50" viewBox="0 0 50 50" fill="none" xmlns="http://www.w3.org/2000/svg">
<circle cx="25" cy="25" r="25" fill="#0183D5"/>
<path d="M13 37C12.175 37 11.469 36.7065 10.882 36.1195C10.295 35.5325 10.001 34.826 10 34V16C10 15.175 10.294 14.469 10.882 13.882C11.47 13.295 12.176 13.001 13 13H37C37.825 13 38.5315 13.294 39.1195 13.882C39.7075 14.47 40.001 15.176 40 16V34C40 34.825 39.7065 35.5315 39.1195 36.1195C38.5325 36.7075 37.826 37.001 37 37H13ZM25 26.5L13 19V34H37V19L25 26.5ZM25 23.5L37 16H13L25 23.5ZM13 19V16V34V19Z" fill="white"/>
</svg>
