<svg width="38" height="38" viewBox="0 0 38 38" fill="none" xmlns="http://www.w3.org/2000/svg">
<circle cx="19" cy="19" r="19" fill="#0183D5"/>
<path d="M26.0707 9.95968C27.9066 11.8146 28.9566 14.3184 28.9987 16.9415C29.0408 19.5647 28.0717 22.1015 26.2963 24.0156L26.0707 24.2514L21.3564 29.0142C20.7582 29.6183 19.9552 29.97 19.11 29.9982C18.2647 30.0263 17.4405 29.7288 16.8043 29.1658L16.6443 29.0142L11.9289 24.2503C10.0535 22.3552 9 19.785 9 17.105C9 14.425 10.0535 11.8547 11.9289 9.95968C13.8042 8.06463 16.3477 7 18.9998 7C21.6519 7 24.1954 8.06463 26.0707 9.95968ZM18.9998 13.7367C18.5621 13.7367 18.1286 13.8238 17.7242 13.9931C17.3198 14.1623 16.9524 14.4105 16.6428 14.7232C16.3333 15.036 16.0878 15.4073 15.9203 15.816C15.7528 16.2247 15.6666 16.6627 15.6666 17.105C15.6666 17.5473 15.7528 17.9853 15.9203 18.394C16.0878 18.8026 16.3333 19.174 16.6428 19.4867C16.9524 19.7995 17.3198 20.0476 17.7242 20.2169C18.1286 20.3862 18.5621 20.4733 18.9998 20.4733C19.8838 20.4733 20.7317 20.1184 21.3568 19.4867C21.9819 18.8551 22.333 17.9983 22.333 17.105C22.333 16.2117 21.9819 15.3549 21.3568 14.7232C20.7317 14.0916 19.8838 13.7367 18.9998 13.7367Z" fill="white"/>
</svg>
