<svg id="Layer_1" data-name="Layer 1" xmlns="http://www.w3.org/2000/svg" viewBox="0 0 881 219.93"><defs><style>.cls-1,.cls-2,.cls-3,.cls-4{isolation:isolate;}.cls-2,.cls-3,.cls-4{font-size:76px;font-family:Arial-BoldMT, Arial;font-weight:700;}.cls-2,.cls-3{fill:#59b9d6;}.cls-2{letter-spacing:-0.04em;}.cls-4,.cls-7{fill:#db7295;}.cls-5{fill:none;}.cls-6{fill:#56b7df;}</style></defs><title>Artboard 1</title><g class="cls-1"><text class="cls-2" transform="translate(350.03 58.17)">T</text><text class="cls-3" transform="translate(384.69 58.17)">rans</text></g><text class="cls-3" transform="translate(350.03 128.83)">Empowerment</text><text class="cls-4" transform="translate(350.03 212.07)">Initiative</text><path class="cls-5" d="M169.9,78.61,125.5,123a41.16,41.16,0,0,0,58.21,58.21l44.4-44.39A41.16,41.16,0,0,0,169.9,78.61Z"/><path class="cls-6" d="M141.55,80.54l42.39,42.4a41,41,0,0,1,11.88,32.64l20-20a62.89,62.89,0,0,0-16.31-28.21L157.11,65"/><path class="cls-6" d="M83.76,139.17l-2.42-2.42a41.16,41.16,0,0,1,50.8-64.08L148,56.8a63.39,63.39,0,0,0-72.24-2L46.56,25.27l64-.28-.09-22.07L9.18,3.37V104.21H31.25v-63l28.46,28.7a63.32,63.32,0,0,0,6,82.44L85.37,172A72.6,72.6,0,0,1,83.76,139.17Z"/><path class="cls-7" d="M307.28,3.45H206.44V25.52h63L247,47.71,240.74,54a63.34,63.34,0,0,0-82.45,6l-44.4,44.4a63.23,63.23,0,0,0,89.42,89.42l44.4-44.4A63.33,63.33,0,0,0,255.88,70l6.38-6.32,23.11-22.89.29,64,22.06-.1ZM129.5,178.21a41.2,41.2,0,0,1,0-58.21l44.4-44.39a41.16,41.16,0,0,1,58.21,58.21h0l-44.4,44.39A41.2,41.2,0,0,1,129.5,178.21Z"/></svg>